<?xml version="1.0" encoding="UTF-8"?>
<svg width="636px" height="84px" viewBox="0 0 636 84" version="1.1" xmlns="http://www.w3.org/2000/svg" xmlns:xlink="http://www.w3.org/1999/xlink">
    <!-- Generator: Sketch 59.1 (86144) - https://sketch.com -->
    <title>编组@2x</title>
    <desc>Created with Sketch.</desc>
    <defs>
        <polygon id="path-1" points="0 0.612444 63.89904 0.612444 63.89904 83.889204 0 83.889204"></polygon>
        <linearGradient x1="50%" y1="0%" x2="50%" y2="100%" id="linearGradient-3">
            <stop stop-color="#31A6A9" offset="0%"></stop>
            <stop stop-color="#198A8E" offset="100%"></stop>
        </linearGradient>
        <linearGradient x1="50%" y1="0%" x2="50%" y2="100%" id="linearGradient-4">
            <stop stop-color="#31A6A9" offset="0%"></stop>
            <stop stop-color="#198A8E" offset="100%"></stop>
        </linearGradient>
        <linearGradient x1="50%" y1="0%" x2="50%" y2="100%" id="linearGradient-5">
            <stop stop-color="#31A6A9" offset="0%"></stop>
            <stop stop-color="#198A8E" offset="100%"></stop>
        </linearGradient>
        <linearGradient x1="50%" y1="0%" x2="50%" y2="100%" id="linearGradient-6">
            <stop stop-color="#31A6A9" offset="0%"></stop>
            <stop stop-color="#198A8E" offset="100%"></stop>
        </linearGradient>
        <linearGradient x1="50%" y1="0%" x2="50%" y2="100%" id="linearGradient-7">
            <stop stop-color="#31A6A9" offset="0%"></stop>
            <stop stop-color="#198A8E" offset="100%"></stop>
        </linearGradient>
        <linearGradient x1="50%" y1="0%" x2="50%" y2="100%" id="linearGradient-8">
            <stop stop-color="#E6E7E7" offset="0%"></stop>
            <stop stop-color="#C9CACA" offset="100%"></stop>
        </linearGradient>
        <linearGradient x1="50%" y1="0%" x2="50%" y2="100%" id="linearGradient-9">
            <stop stop-color="#E6E7E7" offset="0%"></stop>
            <stop stop-color="#C9CACA" offset="100%"></stop>
        </linearGradient>
        <linearGradient x1="50%" y1="0%" x2="50%" y2="100%" id="linearGradient-10">
            <stop stop-color="#E6E7E7" offset="0%"></stop>
            <stop stop-color="#C9CACA" offset="100%"></stop>
        </linearGradient>
        <linearGradient x1="50%" y1="0%" x2="50%" y2="100%" id="linearGradient-11">
            <stop stop-color="#E6E7E7" offset="0%"></stop>
            <stop stop-color="#C9CACA" offset="100%"></stop>
        </linearGradient>
    </defs>
    <g id="zendesk" stroke="none" stroke-width="1" fill="none" fill-rule="evenodd">
        <g id="画板" transform="translate(-122.000000, -398.000000)">
            <g id="编组" transform="translate(122.000000, 398.000000)">
                <g>
                    <mask id="mask-2" fill="white">
                        <use xlink:href="#path-1"></use>
                    </mask>
                    <g id="Clip-2"></g>
                    <path d="M17.81184,14.771484 L17.81184,41.695164 L35.77024,41.695164 C37.78384,41.695164 39.44384,41.501964 40.75344,41.115564 C42.06064,40.726644 43.09904,40.128564 43.87264,39.318804 C44.64384,38.509884 45.18144,37.451484 45.48224,36.148644 C45.78304,34.845804 45.93504,26.975004 45.93504,25.179084 C45.93504,23.384004 45.80064,21.824124 45.53264,20.503644 C45.26384,19.182324 44.74304,18.099564 43.97344,17.254524 C43.20064,16.409484 42.13584,15.783684 40.77744,15.378804 C39.41744,14.973924 37.63184,14.771484 35.41904,14.771484 L17.81184,14.771484 Z M41.50704,0.612444 C49.22224,0.612444 54.88224,2.644404 58.48944,6.713364 C62.09504,10.781484 63.89904,19.473804 63.89904,27.575604 C63.89904,35.783244 62.01904,45.623844 58.26224,49.673484 C54.50544,53.724804 48.91984,55.750044 41.50704,55.750044 L17.81184,55.750044 L17.81184,83.889204 L-0.00016,83.889204 L-0.00016,0.612444 L41.50704,0.612444 Z" id="Fill-1" fill="url(#linearGradient-3)" mask="url(#mask-2)"></path>
                </g>
                <path d="M105.430732,15.7869139 C102.628981,15.7869139 100.261146,15.9882057 98.3288217,16.3866476 C96.3957006,16.7875746 94.8121019,17.5513239 93.5788217,18.6795523 C92.3455414,19.808609 91.4530255,21.3965781 90.9044586,23.4467728 C90.3535032,25.4953109 90.0780255,30.4422859 90.0780255,33.7433065 L90.0780255,50.3627237 C90.0780255,53.6637444 90.3535032,58.6007791 90.9044586,60.6335782 C91.4530255,62.663064 92.3455414,64.2535181 93.5788217,65.3991421 C94.8121019,66.5455944 96.3957006,67.3201124 98.3288217,67.717726 C100.261146,68.1169962 102.628981,68.3174597 105.430732,68.3174597 L106.57086,68.3174597 C109.371815,68.3174597 111.738057,68.1169962 113.671178,67.717726 C115.605096,67.3201124 117.18949,66.5555347 118.421975,65.4273063 C119.655255,64.2974212 120.547771,62.7086238 121.09793,60.6584291 C121.647293,58.6107194 121.921975,53.6637444 121.921975,50.3627237 L121.921975,33.638933 C121.921975,30.3379123 121.647293,25.4008777 121.09793,23.3689069 C120.547771,21.336936 119.663217,19.7564223 118.446656,18.6273655 C117.230096,17.4991371 115.646497,16.7444998 113.697452,16.3609684 C111.746815,15.9790937 109.371815,15.7869139 106.57086,15.7869139 L105.430732,15.7869139 Z M72,28.0317539 C72,23.030107 72.5756369,18.7565899 73.727707,15.2153444 C74.8805732,11.6716138 76.6656051,8.7723485 79.0875796,6.51340664 C81.5063694,4.25612149 84.5947452,2.60685371 88.3511146,1.56394655 C92.1058917,0.521039396 96.6050955,0 101.84793,0 L110.254777,0 C115.529459,0 120.044586,0.513584143 123.800955,1.53826734 C127.558121,2.56295054 130.63535,4.19482274 133.040605,6.43554065 C135.443471,8.67543021 137.203025,11.5763523 138.324045,15.1358217 C139.441879,18.6969479 140,22.9961442 140,28.0317539 L140,53.6977072 C140,58.7001824 139.432325,65.2434101 138.297771,68.7863123 C137.163217,72.3300429 135.393312,75.2293082 132.990446,77.4874217 C130.585987,79.7447069 127.506369,81.394803 123.75,82.4368818 C119.995223,83.4806173 115.495223,84 110.254777,84 L101.84793,84 C96.6050955,84 92.1058917,83.4806173 88.3511146,82.4368818 C84.5947452,81.394803 81.5063694,79.7447069 79.0875796,77.4874217 C76.6656051,75.2293082 74.8805732,72.3300429 73.727707,68.7863123 C72.5756369,65.2434101 72,58.7001824 72,53.6977072 L72,28.0317539 Z" id="Fill-3" fill="url(#linearGradient-4)"></path>
                <polygon id="Fill-5" fill="url(#linearGradient-5)" points="166.451276 64.6219954 198 64.6219954 198 80 148 80 148 0 166.451276 0"></polygon>
                <path d="M235.429545,15.7869139 C232.627826,15.7869139 230.261612,15.9882057 228.327717,16.3866476 C226.394619,16.7875746 224.811039,17.5513239 223.577773,18.6795523 C222.343711,19.808609 221.453594,21.3965781 220.901849,23.4467728 C220.352492,25.4953109 220.077814,30.4422859 220.077814,33.7433065 L220.077814,50.3627237 C220.077814,53.6637444 220.352492,58.6007791 220.901849,60.6335782 C221.453594,62.663064 222.343711,64.2535181 223.577773,65.3991421 C224.811039,66.5455944 226.394619,67.3201124 228.327717,67.717726 C230.261612,68.1169962 232.627826,68.3174597 235.429545,68.3174597 L236.569659,68.3174597 C239.369785,68.3174597 241.736796,68.1169962 243.67069,67.717726 C245.603789,67.3201124 247.187369,66.5555347 248.421431,65.4273063 C249.653901,64.2974212 250.54561,62.7086238 251.095763,60.6584291 C251.647508,58.6107194 251.92139,53.6637444 251.92139,50.3627237 L251.92139,33.638933 C251.92139,30.3379123 251.647508,25.4008777 251.095763,23.3689069 C250.54561,21.336936 249.661862,19.7564223 248.445316,18.6273655 C247.22877,17.4991371 245.645986,16.7444998 243.694576,16.3609684 C241.744758,15.9790937 239.369785,15.7869139 236.569659,15.7869139 L235.429545,15.7869139 Z M202,28.0317539 C202,23.030107 202.574834,18.7565899 203.726891,15.2153444 C204.879743,11.6716138 206.664754,8.7723485 209.085904,6.51340664 C211.506258,4.25612149 214.593802,2.60685371 218.350127,1.56394655 C222.105656,0.521039396 226.604807,0 231.846784,0 L240.253533,0 C245.528153,0 250.043227,0.513584143 253.798757,1.53826734 C257.555878,2.56295054 260.634664,4.19482274 263.038298,6.43554065 C265.442729,8.67543021 267.203058,11.5763523 268.322472,15.1358217 C269.441089,18.6969479 270,22.9961442 270,28.0317539 L270,53.6977072 C270,58.7001824 269.430739,65.2434101 268.296198,68.7863123 C267.161657,72.3300429 265.39257,75.2293082 262.988936,77.4874217 C260.584505,79.7447069 257.50572,81.394803 253.748598,82.4368818 C249.993069,83.4806173 245.494714,84 240.253533,84 L231.846784,84 C226.604807,84 222.105656,83.4806173 218.350127,82.4368818 C214.593802,81.394803 211.506258,79.7447069 209.085904,77.4874217 C206.664754,75.2293082 204.879743,72.3300429 203.726891,68.7863123 C202.574834,65.2434101 202,58.7001824 202,53.6977072 L202,28.0317539 Z" id="Fill-7" fill="url(#linearGradient-4)"></path>
                <polygon id="Fill-9" fill="url(#linearGradient-6)" points="282 0 302.831255 0 333.009357 54.6166494 333.009357 0 350 0 350 80 329.169558 80 298.99227 24.7724911 298.99227 80 282 80"></polygon>
                <polygon id="Fill-11" fill="url(#linearGradient-7)" points="362 80 382 80 382 0 362 0"></polygon>
                <path d="M433.983213,64.516129 C446.978096,64.516129 458.848218,58.6019488 458.848218,39.5698925 C458.848218,20.5370292 446.978096,15.2684137 433.983213,15.2684137 L430.093688,15.2684137 L430.093688,64.516129 L433.983213,64.516129 Z M412,0 L435.174614,0 C459.75599,0 476,11.7202284 476,39.5698925 C476,67.4195566 459.75599,80 436.257114,80 L412,80 L412,0 Z" id="Fill-13" fill="url(#linearGradient-8)"></path>
                <polygon id="Fill-14" fill="url(#linearGradient-9)" points="488 0 545 0 545 15.3781597 506.529494 15.3781597 506.529494 31.7529101 543.743283 31.7529101 543.743283 47.0302003 506.529494 47.0302003 506.529494 64.6226472 545 64.6226472 545 80 488 80"></polygon>
                <polygon id="Fill-15" fill="url(#linearGradient-10)" points="614.228724 34 636 0 612.230893 0 602 15.4921165"></polygon>
                <polygon id="Fill-16" fill="url(#linearGradient-10)" points="613.756485 50 602 67.4734497 613.118199 84 636 84"></polygon>
                <polygon id="Fill-17" fill="url(#linearGradient-11)" points="606 40 576.172345 80 552 80 580.905193 40.0742399 553.315889 0 577.592869 0"></polygon>
            </g>
        </g>
    </g>
</svg>